<svg xmlns="http://www.w3.org/2000/svg" xmlns:xlink="http://www.w3.org/1999/xlink" width="1080" zoomAndPan="magnify" viewBox="0 0 810 809.999993" height="1080" preserveAspectRatio="xMidYMid meet" version="1.0"><path fill="#82cd27" d="M 307.925781 240.871094 C 299.667969 247.195312 288.59375 254.089844 275.304688 258.515625 C 258.441406 264.144531 245.722656 261.425781 237.84375 257.976562 C 231.324219 265.28125 223.097656 273.410156 215.25 280.398438 C 247.335938 281.0625 278.816406 276.949219 306.34375 271.765625 C 307.769531 265.378906 312.101562 258.832031 315.710938 254.246094 L 315.613281 253.773438 C 315.613281 253.773438 312.832031 248.207031 307.925781 240.871094 " fill-opacity="1" fill-rule="nonzero"/><path fill="#82cd27" d="M 410.378906 212.792969 C 395.160156 193.882812 358.867188 202.292969 346.273438 222.246094 C 344.1875 225.535156 342.476562 228.539062 341.023438 231.351562 C 341.085938 231.480469 343.742188 236.570312 352.066406 234.925781 C 360.449219 233.28125 363.613281 220.695312 382.535156 225.945312 C 395.507812 229.519531 403.765625 243.242188 407.6875 251.496094 C 410 251.148438 412.402344 250.769531 414.871094 250.421875 C 420.660156 238.5625 420.566406 225.441406 410.378906 212.792969 " fill-opacity="1" fill-rule="nonzero"/><path fill="#de1d26" d="M 468.21875 440.113281 L 468.089844 439.511719 C 468.089844 439.511719 464.609375 432.492188 458.441406 423.261719 C 448.03125 431.230469 434.046875 439.925781 417.339844 445.488281 C 396.078125 452.574219 380.035156 449.125 370.132812 444.792969 C 353.332031 463.671875 327.417969 486.882812 315.363281 493.109375 C 307.039062 497.410156 301.851562 501.046875 298.59375 503.734375 C 314.917969 506.042969 331.339844 507.085938 347.605469 507.183594 L 388.609375 505.570312 C 424.710938 502.660156 458.757812 496.179688 487.519531 489.820312 L 487.519531 489.472656 C 479.828125 489.410156 469.832031 487.355469 461.035156 479.230469 C 449.203125 468.320312 460.210938 450.328125 468.21875 440.113281 " fill-opacity="1" fill-rule="nonzero"/><path fill="#de1d26" d="M 506.722656 399.828125 C 504.097656 403.941406 501.945312 407.734375 500.113281 411.277344 C 500.207031 411.433594 503.527344 417.851562 514 415.796875 C 524.601562 413.710938 528.589844 397.835938 552.414062 404.445312 C 576.238281 411.054688 587.441406 444.761719 587.441406 444.761719 C 599.90625 427.5625 603.132812 407.292969 587.503906 387.90625 C 568.296875 364.097656 522.609375 374.660156 506.722656 399.828125 " fill-opacity="1" fill-rule="nonzero"/><path fill="#63cceb" d="M 717.070312 564.382812 C 717.070312 564.382812 597.46875 524.320312 430.753906 570.644531 C 264.039062 616.96875 144.4375 557.207031 144.4375 557.207031 C 144.4375 557.207031 285.808594 636.386719 444.644531 593.066406 C 603.449219 549.710938 679.703125 555.152344 717.070312 564.382812 " fill-opacity="1" fill-rule="nonzero"/><path fill="#d69364" d="M 468.21875 440.113281 C 460.210938 450.328125 449.203125 468.320312 461.035156 479.230469 C 469.832031 487.355469 479.828125 489.410156 487.519531 489.472656 L 487.519531 488.496094 C 487.519531 488.496094 496.789062 475.910156 505.394531 475.246094 C 489.511719 467.972656 490.175781 439.511719 490.175781 439.511719 C 490.175781 439.511719 471.128906 452.984375 468.21875 440.113281 " fill-opacity="1" fill-rule="nonzero"/><path fill="#d69364" d="M 315.710938 254.246094 C 312.101562 258.832031 307.769531 265.378906 306.34375 271.765625 C 316.28125 269.898438 325.707031 267.90625 334.472656 265.914062 C 332.984375 259.496094 333.144531 253.773438 333.144531 253.773438 C 333.144531 253.773438 318.019531 264.460938 315.710938 254.246094 " fill-opacity="1" fill-rule="nonzero"/><path fill="#44abd3" d="M 670.75 490.800781 C 764.375 495.957031 810 532.414062 810 532.414062 C 697.675781 438.882812 613.164062 468.414062 560.578125 473.949219 C 546.308594 475.464844 520.328125 482.550781 487.519531 489.820312 C 458.757812 496.179688 424.710938 502.660156 388.609375 505.570312 C 375.164062 506.675781 361.429688 507.277344 347.605469 507.183594 C 331.339844 507.085938 314.917969 506.042969 298.59375 503.734375 C 282.011719 501.425781 265.527344 497.789062 249.421875 492.542969 C 247.335938 495.578125 245.054688 498.359375 242.523438 500.414062 C 231.925781 509.015625 211.328125 494.375 217.941406 481.125 L 218.445312 480.273438 C 123.589844 437.867188 70.527344 454.058594 70.527344 454.058594 C 124.347656 454.058594 133.714844 466.929688 174.65625 493.839844 C 215.597656 520.714844 302.199219 588.542969 380.828125 561.191406 C 459.421875 533.839844 577.15625 485.648438 670.75 490.800781 " fill-opacity="1" fill-rule="nonzero"/><path fill="#44abd3" d="M 246.320312 323.339844 C 308.71875 301.613281 402.183594 263.386719 476.507812 267.464844 C 550.800781 271.542969 587.027344 300.507812 587.027344 300.507812 C 514.414062 240.046875 456.449219 244.347656 414.871094 250.421875 C 412.402344 250.769531 410 251.148438 407.6875 251.496094 C 400.980469 252.507812 394.75 253.488281 389.019531 254.089844 C 378.199219 255.226562 358.898438 260.445312 334.472656 265.914062 C 325.707031 267.90625 316.28125 269.898438 306.34375 271.765625 C 278.816406 276.949219 247.335938 281.0625 215.25 280.398438 C 183.324219 279.765625 150.734375 274.359375 120.742188 260.601562 C 43.347656 225.027344 0 238.308594 0 238.308594 C 42.714844 238.308594 50.152344 248.523438 82.675781 269.867188 C 115.171875 291.210938 183.925781 345.0625 246.320312 323.339844 " fill-opacity="1" fill-rule="nonzero"/><path fill="#e8b185" d="M 218.445312 480.273438 L 217.941406 481.125 C 211.328125 494.375 231.925781 509.015625 242.523438 500.414062 C 245.054688 498.359375 247.335938 495.578125 249.421875 492.542969 C 256.195312 482.800781 261.003906 470.152344 265.023438 468.636719 C 270.335938 466.644531 340.515625 414.375 349.785156 397.835938 C 349.785156 397.835938 382.25 410.421875 385.539062 420.320312 C 386.773438 424.019531 380.035156 433.664062 370.132812 444.792969 C 380.035156 449.125 396.078125 452.574219 417.339844 445.488281 C 434.046875 439.925781 448.03125 431.230469 458.441406 423.261719 C 449.421875 409.851562 434.710938 391.796875 416.675781 383.925781 C 386.207031 370.707031 365.640625 361.726562 356.621094 357.109375 C 352.824219 355.179688 331.910156 353.503906 321.308594 371.371094 C 310.710938 389.234375 255.71875 444.890625 249.105469 452.160156 C 242.621094 459.277344 225.40625 467.53125 218.445312 480.273438 " fill-opacity="1" fill-rule="nonzero"/><path fill="#e8b185" d="M 587.441406 444.761719 C 587.441406 444.761719 576.238281 411.054688 552.414062 404.445312 C 528.589844 397.835938 524.601562 413.710938 514 415.796875 C 503.527344 417.851562 500.207031 411.433594 500.113281 411.277344 C 490.683594 429.300781 490.175781 439.511719 490.175781 439.511719 C 490.175781 439.511719 489.511719 467.972656 505.394531 475.246094 C 514 474.582031 557.699219 475.246094 577.566406 456.082031 C 581.269531 452.507812 584.59375 448.714844 587.441406 444.761719 " fill-opacity="1" fill-rule="nonzero"/><path fill="#e8b185" d="M 333.144531 253.773438 C 333.144531 253.773438 332.984375 259.496094 334.472656 265.914062 C 358.898438 260.445312 378.199219 255.226562 389.019531 254.089844 C 394.75 253.488281 400.980469 252.507812 407.6875 251.496094 C 403.765625 243.242188 395.507812 229.519531 382.535156 225.945312 C 363.613281 220.695312 360.449219 233.28125 352.066406 234.925781 C 343.742188 236.570312 341.085938 231.480469 341.023438 231.351562 C 333.523438 245.675781 333.144531 253.773438 333.144531 253.773438 " fill-opacity="1" fill-rule="nonzero"/><path fill="#e8b185" d="M 96.441406 196.191406 C 106.882812 199.035156 123.621094 193.472656 127.351562 195.96875 C 131.085938 198.46875 206.738281 222.371094 221.707031 220.695312 C 221.707031 220.695312 247.460938 230.65625 250.085938 238.53125 C 251.035156 241.472656 245.722656 249.125 237.84375 257.976562 C 245.722656 261.425781 258.441406 264.144531 275.304688 258.515625 C 288.59375 254.089844 299.667969 247.195312 307.925781 240.871094 C 300.808594 230.214844 289.132812 215.890625 274.765625 209.660156 C 250.59375 199.132812 234.265625 192.015625 227.117188 188.347656 L 227.054688 188.632812 C 223.921875 187.464844 220.3125 186.832031 216.167969 187.179688 C 199.746094 188.632812 138.363281 178.957031 130.582031 178.070312 C 122.828125 177.1875 109.097656 169.566406 97.484375 171.429688 C 85.871094 173.296875 85.96875 193.34375 96.441406 196.191406 " fill-opacity="1" fill-rule="nonzero"/></svg>